<svg id="Capa_1" enable-background="new 0 0 512 512" height="512" viewBox="0 0 512 512" width="512" xmlns="http://www.w3.org/2000/svg"><g><g><g><path d="m462.364 40.383h-89.414c-4.142 0-7.5 3.358-7.5 7.5s3.358 7.5 7.5 7.5h89.414c4.142 0 7.5-3.358 7.5-7.5s-3.358-7.5-7.5-7.5z"/><path d="m462.364 73.775h-89.414c-4.142 0-7.5 3.358-7.5 7.5s3.358 7.5 7.5 7.5h89.414c4.142 0 7.5-3.358 7.5-7.5s-3.358-7.5-7.5-7.5z"/><path d="m466.306 0h-51.548c-4.142 0-7.5 3.358-7.5 7.5s3.358 7.5 7.5 7.5h51.548c15.547 0 28.196 12.649 28.196 28.196v42.883c0 15.547-12.649 28.197-28.196 28.197h-57.591c-5.841 0-11.379 2.82-14.815 7.544l-20.208 27.785v-18.291c0-8.54-5.74-15.855-13.959-17.787-12.782-3.007-21.709-14.293-21.709-27.448v-42.884c0-15.547 12.649-28.196 28.196-28.196h13.478c4.142 0 7.5-3.358 7.5-7.5s-3.358-7.5-7.5-7.5h-13.478c-23.818 0-43.195 19.377-43.195 43.195v42.883c0 20.149 13.683 37.44 33.274 42.048 1.387.326 2.394 1.666 2.394 3.187v31.359c0 10.387 13.334 14.723 19.443 6.322l27.894-38.354c.623-.856 1.626-1.367 2.685-1.367h57.591c23.818 0 43.195-19.378 43.195-43.196v-42.881c0-23.818-19.377-43.195-43.195-43.195z"/><path d="m266.604 407.877h-43.21c-6.727 0-12.199 5.472-12.199 12.199v17.617c0 6.727 5.473 12.199 12.199 12.199h43.21c6.727 0 12.199-5.472 12.199-12.199v-17.617c0-6.727-5.473-12.199-12.199-12.199zm-2.8 27.015h-37.61v-12.016h37.61z"/></g><path d="m314.394 323.354c-20.762-9.5-58.516-15.548-79.236-18.314-.016-.002-.034-.006-.05-.008-.009-.001-.018-.001-.027-.002-.004-.001-.008-.001-.012-.002-2.574-.343-4.515-2.686-4.515-5.45v-28.48c14.4-10.681 31.019-29.045 31.321-56.972h21.4c18.022 0 32.607-14.585 32.606-32.609l-.002-22.422c-.002-75.537-61.46-136.991-136.999-136.991-75.721 0-137.006 61.284-136.999 137.013l.003 22.402c.002 15.396 10.734 28.319 25.106 31.718v14.355c0 11.844 9.636 21.481 21.481 21.481h17.718c6.012 9.452 13.799 16.732 21.02 22.078v28.429c0 2.764-1.941 5.107-4.514 5.45-20.701 2.761-58.534 8.812-79.325 18.326-24.827 11.36-40.87 36.704-40.87 64.567v24.075c0 4.142 3.358 7.5 7.5 7.5s7.5-3.358 7.5-7.5v-24.075c0-22.012 12.604-42.002 32.111-50.928 9.934-4.546 24.84-8.306 39.235-11.194l21.369 39.043c4.964 9.07 14.556 14.617 24.708 14.617 3.578 0 2.938-.23 36.461-5.076v122.617h-102.082v-33.879c0-4.142-3.358-7.5-7.5-7.5s-7.5 3.358-7.5 7.5v33.879h-29.312c-4.131 0-7.492-3.547-7.492-7.907v-41.85c0-4.142-3.358-7.5-7.5-7.5s-7.5 3.358-7.5 7.5v41.85c.001 12.629 10.09 22.905 22.492 22.905h307.783c12.402 0 22.491-10.276 22.491-22.906v-101.173c0-27.862-16.043-53.207-40.87-64.567zm-77.756-2.973c4.58.639 10.349 1.496 16.71 2.564l-18.99 34.698c-2.624 4.793-8.016 7.481-13.425 6.681l-25.87-3.815zm25.003-178.931c-2.037-20.066-12.524-28.916-27.198-42.093-11.273-10.143-28.654-9.555-39.572 1.339-9.475 9.455-22.064 14.663-35.447 14.663h-32.112c-11.341 0-27.123 9.213-30.821 26.092h-12.814c8.247-43.883 46.441-77.514 92.697-78.687 49.154-1.247 89.249 33.98 97.699 78.687h-12.432zm-179.596 14.999h13.659l.074 42.678h-13.784c.017-41.376-.055-39.336.051-42.678zm193.731 42.678h-13.861l.074-42.678h13.726c.107 3.334.035 1.275.061 42.678zm-218.893-17.61-.003-22.401c-.007-67.43 54.561-122.013 122-122.013 67.269 0 121.998 54.726 122.002 121.994l.002 22.422c.001 7.065-4.152 13.135-10.109 15.942l-.003-37.844c-.003-62.818-51.808-113.457-114.778-111.848-59.513 1.508-109.01 49.987-109.004 111.865l.005 37.815c-5.971-2.822-10.111-8.902-10.112-15.932zm31.587 52.556c-3.574 0-6.482-2.908-6.482-6.482v-13.465h13.829c.08 7.292 1.279 13.926 3.253 19.947zm24.065-7.403c-1.116-4.168-1.733-8.612-1.733-13.338l-.112-64.383c0-12.207 10.821-18.593 16.622-18.593h32.112c17.384 0 33.735-6.764 46.042-19.045 5.275-5.265 13.598-5.617 18.944-.807 14.885 13.357 22.63 19.411 22.594 38.431l-.112 64.409c0 21.505-12.708 37.179-27.683 47.455-.261.156-.512.327-.751.513-14.299 9.594-30.489 14.317-39.611 14.531-8.46-.199-22.999-4.278-36.472-12.523h14.063c11.712 0 21.24-9.528 21.24-21.24s-9.528-21.24-21.24-21.24h-29.329c-5.643.001-10.766 2.228-14.574 5.83zm14.574 21.652c-3.476 0-6.241-2.862-6.241-6.241 0-3.442 2.8-6.241 6.241-6.241h29.329c3.442 0 6.241 2.8 6.241 6.241s-2.8 6.241-6.241 6.241zm9.686 116.001c-5.409.801-10.802-1.888-13.425-6.681l-18.987-34.692c6.36-1.067 12.129-1.925 16.711-2.565l41.571 40.123zm-.589-50.198c3.713-3.741 6.001-8.91 6.001-14.546v-19.189c13.665 6.943 27.298 10.283 36.5 10.454.046.001.093.001.14.001.046 0 .093 0 .14-.001 9.217-.171 22.881-3.521 36.57-10.488v19.223c0 5.627 2.281 10.789 5.984 14.529l-42.676 41.189zm204.059 174.969c0 4.36-3.361 7.907-7.492 7.907h-29.313v-33.879c0-4.142-3.358-7.5-7.5-7.5s-7.5 3.358-7.5 7.5v33.879h-102.08v-122.612c33.476 4.839 32.848 5.071 36.426 5.071 10.151 0 19.744-5.548 24.708-14.617l21.372-39.05c14.405 2.888 29.325 6.651 39.266 11.2 19.507 8.926 32.111 28.916 32.111 50.928v101.173z"/></g></g></svg>